<?xml version="1.0" encoding="utf-8"?>
<!-- Generator: Adobe Illustrator 24.0.2, SVG Export Plug-In . SVG Version: 6.00 Build 0)  -->
<svg version="1.1" id="Layer_1" xmlns="http://www.w3.org/2000/svg" xmlns:xlink="http://www.w3.org/1999/xlink" x="0px" y="0px"
	 viewBox="0 0 1000 1000" style="enable-background:new 0 0 1000 1000;" xml:space="preserve">
<style type="text/css">
	.st0{fill:none;stroke:#FFFFFF;stroke-width:50;stroke-miterlimit:10;}
	.st1{fill:#FFFFFF;}
</style>
<path class="st0" d="M303.94,786.33c-11.45,0-25.77-2.86-37.22-5.73c-11.45-2.86-17.18-8.59-22.91-14.32l-2.86-2.86
	c-2.86-2.86-5.73-8.59-5.73-11.45c0-5.73,2.86-8.59,8.59-11.45c22.91-11.45,42.95-31.5,54.4-54.4c0-2.86,0-5.73,2.86-8.59
	c-80.17-48.68-125.98-125.98-125.98-206.15c-2.86-143.16,143.16-257.69,323.55-257.69S825.05,328.2,825.05,471.37
	S679.02,731.92,498.64,731.92c-17.18,0-37.22,0-54.4-2.86C401.29,766.28,352.61,786.33,303.94,786.33z"/>
<path class="st1" d="M500,505.5L500,505.5c-19.51,0-35.32-15.81-35.32-35.32v0c0-19.51,15.81-35.32,35.32-35.32h0
	c19.51,0,35.32,15.81,35.32,35.32v0C535.32,489.69,519.51,505.5,500,505.5z"/>
<path class="st1" d="M380,505.5L380,505.5c-19.51,0-35.32-15.81-35.32-35.32v0c0-19.51,15.81-35.32,35.32-35.32h0
	c19.51,0,35.32,15.81,35.32,35.32v0C415.32,489.69,399.51,505.5,380,505.5z"/>
<path class="st1" d="M620,505.5L620,505.5c-19.51,0-35.32-15.81-35.32-35.32v0c0-19.51,15.81-35.32,35.32-35.32h0
	c19.51,0,35.32,15.81,35.32,35.32v0C655.32,489.69,639.51,505.5,620,505.5z"/>
</svg>
