<?xml version="1.0" encoding="utf-8"?>
<!-- Generator: Adobe Illustrator 24.0.2, SVG Export Plug-In . SVG Version: 6.00 Build 0)  -->
<svg version="1.1" id="Layer_1" xmlns="http://www.w3.org/2000/svg" xmlns:xlink="http://www.w3.org/1999/xlink" x="0px" y="0px"
	 viewBox="0 0 980 978" style="enable-background:new 0 0 980 978;" xml:space="preserve">
<style type="text/css">
	.st0{fill:#FFFFFF;stroke:#FFFFFF;stroke-width:10;stroke-miterlimit:10;}
</style>
<g transform="translate(0.000000,978.000000) scale(0.100000,-0.100000)">
	<path class="st0" d="M7240.96,8378.09c-20.74-2.86-52.91-13.58-72.22-23.6c-25.74-14.3-557.71-542.7-1973.44-1958.43
		C3639.43,4840.19,3253.32,4449.79,3239.02,4421.19c-9.3-19.31-114.4-326.76-233.09-682.84
		c-200.2-602.04-215.22-651.38-215.22-697.14c0-85.8,47.19-161.59,125.13-202.35c29.32-15.02,45.76-18.59,92.95-18.59
		c56.49-0.72,67.21,2.86,717.16,220.22c612.77,204.49,662.1,222.37,700.72,250.97c22.17,17.16,906.64,897.34,1964.86,1956.28
		c2139.33,2142.19,1957,1949.85,1957.71,2054.95c1.43,98.67,25.74,69.36-484.78,581.31c-313.18,313.89-467.62,464.04-488.36,474.05
		C7338.2,8376.66,7287.44,8383.81,7240.96,8378.09z M7541.98,7570.84l264.56-264.56l-266.7-266.7l-265.99-265.99l-265.99,265.99
		l-265.27,265.27l263.13,265.27c145.15,145.86,265.27,265.27,267.42,265.27C7276,7835.39,7396.83,7715.98,7541.98,7570.84z
		 M6688.97,6722.11c145.15-145.15,263.13-265.99,263.13-270.28c0-3.58-624.92-631.36-1388.56-1395.71L4174.97,3666.85
		l-397.55-132.28c-218.08-72.93-398.98-132.28-401.84-132.28c-2.15,0,54.34,178.04,127.27,394.69l131.56,394.69l1392.13,1395.71
		c766.5,767.21,1394.28,1395.71,1396.43,1395.71C6425.13,6983.81,6544.54,6866.55,6688.97,6722.11z"/>
	<path class="st0" d="M2272.32,8170.73c-77.22-8.58-184.47-36.47-259.55-67.93c-310.32-127.99-528.4-395.4-599.18-735.75
		c-12.87-62.21-13.59-143-13.59-2581.21V2269l16.45-74.36c92.24-411.13,394.69-707.15,802.25-785.09
		c65.07-12.16,189.48-12.87,2681.31-12.87c2482.53,0,2616.96,0.71,2681.31,12.87c407.56,77.22,711.44,373.95,802.25,786.52
		L8400,2269v1229.83v1229.83l-15.02,32.89c-37.18,79.37-107.25,127.99-193.05,133.71c-75.79,5-116.55-10.73-170.89-65.78
		c-74.36-75.08-67.93,52.2-67.93-1297.75c-0.72-1267.01,0.71-1228.4-37.9-1332.07c-27.17-75.08-60.06-125.13-126.56-191.62
		c-67.93-68.64-125.84-105.11-210.93-134.42l-57.2-19.31H4900H2279.47l-57.2,19.31c-176.61,60.06-308.89,203.06-358.22,388.25
		c-12.87,48.62-13.59,127.27-13.59,2524c0,2350.26,0.71,2476.1,12.87,2524c48.62,191.62,198.06,344.64,388.97,398.98l55.77,15.73
		l1290.6,3.58l1290.6,3.58l35.75,19.31c60.78,32.18,97.24,79.37,115.12,149.44c26.46,102.96-28.6,211.64-129.42,258.12l-35.75,16.45
		l-1272.73,0.71C2902.25,8176.45,2303.78,8174.31,2272.32,8170.73z"/>
</g>
</svg>
